<svg width="115" height="25" fill="none" xmlns="http://www.w3.org/2000/svg"><g clip-path="url(#clip0)"><path d="M18.302 4.892l.26-.265c.25-.254.66-.595 1.104-.83a2.42 2.42 0 01.767-.266 3.308 3.308 0 00-.933-1.382c-.681-.597-1.776-1.049-3.496-.837-.755.093-1.301.259-1.842.424 0 0 0 0 0 0l-.009.002c-.674.206-1.345.411-2.33.418-.587.005-1.279-.06-2.148-.229l-.236.524c-.426-.146-1.22-.304-2.052-.27-.838.034-1.641.258-2.174.798m13.09 1.913L5.212 2.979m13.09 1.913l.23.29c.517.648.684 1.638.627 2.704a9.42 9.42 0 01-.49 2.48l-.62-.04c.097-1.314.083-2.275.006-2.952a4.249 4.249 0 00-.185-.901c-.074-.212-.185-.434-.373-.564l-.242-.167-.24.17C13.61 8.336 10.583 7.57 9.631 7.33l-.004-.001-.004-.001c-.064-.016-.124-.032-.175-.043a1.16 1.16 0 00-.169-.029.497.497 0 00-.175.017.436.436 0 00-.31.384.45.45 0 00.082.288v.002a.643.643 0 00.076.087h0c.056.056.121.11.192.165-.938-.161-1.662-.449-2.214-.757a5.381 5.381 0 01-1.547-1.288h0s0 0 0 0a41.78 41.78 0 01-.009-.01 2.467 2.467 0 00-.124-.14l-.286.292.286-.291a1.853 1.853 0 00-.436-.297 1.958 1.958 0 00-.692-.21c-.27-.025-.58.02-.858.22-.276.199-.47.515-.586.935-.359 1.3-.204 2.775-.075 3.689l-.511.03c-.702-1.709-.766-3.014-.554-3.967.224-1.003.759-1.647 1.244-1.99l.143-.1a.784.784 0 00.435.285.753.753 0 00.391-.012c.218-.065.39-.211.507-.329a2.608 2.608 0 00.397-.527l.003-.007m13.644 1.168L4.658 3.724m.555-.745a3.872 3.872 0 00-.369.465 7.682 7.682 0 00-.176.266l-.01.014m.555-.745l-.555.745m4.881 3.71h.002s0 0 0 0h-.002z" fill="#754FFE" stroke="#754FFE" stroke-width=".839"/><path d="M7.817 11.17H2.393c-.681 0-1.233.543-1.233 1.213v2.473c0 .67.552 1.213 1.233 1.213h5.424c.68 0 1.233-.543 1.233-1.213v-2.473c0-.67-.552-1.213-1.233-1.213z" fill="#fff" stroke="#754FFE" stroke-width="1.064"/><path d="M.616 12.019H.271a.27.27 0 00-.271.267v.776c0 .147.121.266.271.266h.345a.27.27 0 00.272-.266v-.776a.269.269 0 00-.272-.267z" fill="#754FFE" stroke="#754FFE" stroke-width=".053"/><path d="M12.994 11.17h5.424c.681 0 1.233.543 1.233 1.213v2.473c0 .67-.552 1.213-1.233 1.213h-5.424c-.68 0-1.233-.543-1.233-1.213v-2.473c0-.67.552-1.213 1.233-1.213z" fill="#fff" stroke="#754FFE" stroke-width="1.064"/><path d="M20.194 12.019h.345c.15 0 .271.12.271.267v.776a.269.269 0 01-.271.266h-.345a.269.269 0 01-.272-.266v-.776a.27.27 0 01.272-.267zm-10.653.727h1.726c.15 0 .272.12.272.267v.776a.269.269 0 01-.272.267H9.541a.269.269 0 01-.27-.267v-.776c0-.147.12-.267.27-.267z" fill="#754FFE" stroke="#754FFE" stroke-width=".053"/><mask id="a" fill="#fff"><path d="M7.704 13.384c0 .241-.132.437-.296.437-.163 0-.295-.196-.295-.437 0-.24.132-.436.295-.436.164 0 .296.195.296.436z"/></mask><path d="M7.704 13.384c0 .241-.132.437-.296.437-.163 0-.295-.196-.295-.437 0-.24.132-.436.295-.436.164 0 .296.195.296.436z" fill="#754FFE"/><path d="M6.865 13.384a.29.29 0 01.058-.162.585.585 0 01.485-.24v1.678c.444 0 .748-.265.904-.496.16-.236.232-.514.232-.78H6.865zm.543-.402c.28 0 .437.167.486.24a.292.292 0 01.058.162H6.273c0 .266.072.544.232.78.156.23.46.496.903.496v-1.678zm.544.402a.291.291 0 01-.058.162.585.585 0 01-.486.241v-1.679c-.443 0-.747.266-.903.497-.16.235-.232.513-.232.78h1.679zm-.544.403a.585.585 0 01-.485-.24.291.291 0 01-.058-.163h1.679c0-.266-.072-.544-.232-.78a1.096 1.096 0 00-.904-.495v1.678z" fill="#754FFE" mask="url(#a)"/><mask id="b" fill="#fff"><path d="M13.178 13.384c0 .241.132.437.296.437.163 0 .296-.196.296-.437 0-.24-.133-.436-.296-.436-.164 0-.296.195-.296.436z"/></mask><path d="M13.178 13.384c0 .241.132.437.296.437.163 0 .296-.196.296-.437 0-.24-.133-.436-.296-.436-.164 0-.296.195-.296.436z" fill="#754FFE"/><path d="M12.338 13.384c0 .266.072.544.232.78.156.23.46.496.904.496v-1.678c.28 0 .436.167.485.24a.292.292 0 01.058.162H12.34zm1.136 1.276c.443 0 .747-.265.904-.496.16-.236.23-.514.23-.78H12.93c0-.025.006-.085.058-.162a.585.585 0 01.486-.24v1.678zm1.135-1.276a1.4 1.4 0 00-.231-.78 1.096 1.096 0 00-.904-.495v1.678a.586.586 0 01-.486-.24.292.292 0 01-.058-.163h1.679zm-1.135-1.276c-.444 0-.748.266-.904.497-.16.235-.232.513-.232.78h1.68a.292.292 0 01-.059.162.585.585 0 01-.485.24v-1.679z" fill="#754FFE" mask="url(#b)"/><mask id="c" fill="#fff"><path d="M11.082 16.221c-.493.388-1.158.194-1.331 0 .05.243.237.582.69.582.454 0 .617-.388.641-.582z"/></mask><path d="M11.082 16.221c-.493.388-1.158.194-1.331 0 .05.243.237.582.69.582.454 0 .617-.388.641-.582z" fill="#754FFE"/><path d="M11.082 16.221l.833.106.258-2.032-1.61 1.267.52.66zm-1.331 0l.627-.557-2.07-2.326.62 3.05.823-.167zm.812-.66c-.039.031-.098.052-.185.043a.338.338 0 01-.092-.02l.008.005a.38.38 0 01.084.075l-1.254 1.115c.158.177.357.287.515.353.173.072.37.123.576.143.412.04.932-.037 1.386-.394l-1.038-1.32zm-1.635.827c.048.235.164.538.409.794.264.278.643.46 1.104.46v-1.678c-.006 0 .012 0 .042.012.03.013.053.032.07.048.014.016.019.027.02.028v.002l-1.645.334zm1.513 1.255c.502 0 .885-.23 1.128-.522.22-.265.317-.568.346-.794l-1.665-.212a.107.107 0 01.008-.036.114.114 0 01.019-.03.247.247 0 01.164-.085v1.679z" fill="#754FFE" mask="url(#c)"/><mask id="d" fill="#fff"><path fill-rule="evenodd" clip-rule="evenodd" d="M9.414 17.989a.173.173 0 01.206-.13l1.742.378a.17.17 0 11-.074.331l-1.742-.377a.17.17 0 01-.132-.202z"/></mask><path fill-rule="evenodd" clip-rule="evenodd" d="M9.414 17.989a.173.173 0 01.206-.13l1.742.378a.17.17 0 11-.074.331l-1.742-.377a.17.17 0 01-.132-.202z" fill="#754FFE"/><path d="M9.414 17.989l-.819-.183.82.183zm.206-.13l-.178.82v.001l.178-.82zm1.742.378l.178-.82-.178.82zm.131.202l-.819-.183.82.183zm-.205.13l.178-.82-.178.82zm-1.742-.378l.177-.82-.177.82zm.687-.019a.667.667 0 01-.791.508l.356-1.64a1.012 1.012 0 00-1.203.766l1.638.366zm-.79.508l1.741.377.355-1.64-1.742-.378-.355 1.641zm1.74.377a.67.67 0 01-.509-.801l1.638.367a1.01 1.01 0 00-.772-1.206l-.356 1.64zm-.509-.8a.667.667 0 01.792-.509l-.356 1.64a1.012 1.012 0 001.202-.766l-1.638-.366zm.791-.509l-1.742-.377-.355 1.64 1.742.378.355-1.64zm-1.742-.377a.67.67 0 01.51.8l-1.638-.365a1.01 1.01 0 00.773 1.206l.355-1.641z" fill="#754FFE" mask="url(#d)"/><path d="M4.069 21.634a7.935 7.935 0 01.814-1.856 10.29 10.29 0 001.546 1.339c-.578-.098-1.444-.028-2.36.517zm11.95-.303c-.44-.178-.961-.316-1.464-.271a9.235 9.235 0 001.395-1.236 7.96 7.96 0 01.808 1.87 6.059 6.059 0 00-.74-.363z" fill="#754FFE" stroke="#754FFE" stroke-width=".839"/><path d="M37.997 8.276h3.672c-.467-3.38-3.447-5.758-7.31-5.758-4.515 0-7.995 3.254-7.995 8.796 0 5.407 3.254 8.762 8.07 8.762 4.314 0 7.393-2.729 7.393-7.227v-2.153h-7.151v2.72h3.671c-.05 2.12-1.493 3.464-3.897 3.464-2.712 0-4.423-2.028-4.423-5.6 0-3.555 1.778-5.566 4.39-5.566 1.86 0 3.12.96 3.58 2.562zm11.38 11.817c3.171 0 5.307-1.544 5.808-3.923l-3.288-.217c-.359.977-1.277 1.486-2.462 1.486-1.777 0-2.904-1.177-2.904-3.088v-.008h8.73v-.977c0-4.356-2.638-6.509-6.026-6.509-3.772 0-6.217 2.679-6.217 6.635 0 4.064 2.412 6.6 6.359 6.6zm-2.846-7.953c.075-1.46 1.185-2.63 2.763-2.63 1.543 0 2.612 1.102 2.62 2.63h-5.383zm15.951 7.953c3.17 0 5.307-1.544 5.808-3.923l-3.288-.217c-.359.977-1.277 1.486-2.462 1.486-1.777 0-2.904-1.177-2.904-3.088v-.008h8.73v-.977c0-4.356-2.638-6.509-6.026-6.509-3.772 0-6.217 2.679-6.217 6.635 0 4.064 2.412 6.6 6.359 6.6zm-2.846-7.953c.075-1.46 1.185-2.63 2.762-2.63 1.544 0 2.612 1.102 2.62 2.63h-5.382zm10.109 7.702H73.3V15.77l.96-1.093 3.496 5.165h4.164l-4.998-7.268 4.756-5.55h-4.08l-4.106 4.865H73.3V2.751h-3.555v17.091zm23.403-9.162c-.317-2.362-2.22-3.823-5.458-3.823-3.28 0-5.441 1.519-5.433 3.99-.008 1.918 1.202 3.162 3.706 3.663l2.22.442c1.117.225 1.627.634 1.644 1.277-.017.76-.844 1.302-2.087 1.302-1.268 0-2.111-.543-2.328-1.586l-3.497.183c.334 2.454 2.42 3.965 5.817 3.965 3.32 0 5.7-1.695 5.708-4.223-.009-1.853-1.219-2.963-3.706-3.472l-2.32-.467c-1.193-.259-1.635-.668-1.627-1.285-.008-.768.86-1.269 1.962-1.269 1.234 0 1.969.676 2.144 1.502l3.255-.2z" fill="#18113C"/></g><rect x="100.562" y="5.563" width="13.875" height="13.875" rx="3.938" stroke="#18113C" stroke-width="1.125"/><path d="M107.793 9.5v4.133c0 .748-.524 1.288-1.33 1.288-.802 0-1.329-.54-1.329-1.288V9.5h-1.384v4.25c0 1.433 1.08 2.388 2.713 2.388 1.627 0 2.714-.955 2.714-2.387V9.5h-1.384zm3.906 0h-1.384v6.546h1.384V9.5z" fill="#18113C"/><defs><clipPath id="clip0"><path fill="#fff" d="M0 0h94v24.339H0z"/></clipPath></defs></svg>