<svg width="133" height="34" fill="none" xmlns="http://www.w3.org/2000/svg"><g clip-path="url(#clip0)"><path opacity=".5" d="M30.346 19.983c0 8.166-5.403 14.785-12.069 14.785-6.665 0-12.068-6.62-12.068-14.785 0-2.963-.096-6.756 1.13-9.07 2.151-4.06 6.692-5.05 10.938-5.05s9.154 1.284 11.305 5.345c1.226 2.314.764 5.812.764 8.775z" fill="#fff"/><path fill-rule="evenodd" clip-rule="evenodd" d="M28.805 6.253c1.845 2.352.989 6.854.142 9.01l.024.007h-.018l-2.054-.136v-.01c.4-4.65-.06-6.512-.51-6.827-5.373 3.884-10.172 2.65-11.656 2.268-.404-.104-.562-.145-.419-.002.436.436 1.429.96 2.136 1.333.161.085.307.161.428.228-5.833.067-8.178-2.741-8.867-3.567a3.317 3.317 0 00-.162-.186c-.336-.336-2.229-1.486-2.823.706-.576 2.123-.211 4.614-.019 5.928.017.114.019.117.019.154l-1.895.111h-.005C.606 9.444 2.5 6.178 4.208 4.953c0-2.86 3.493-5.647 7.914-4.644 5.665 1.614 7.388 1.08 9.415.45.819-.254 1.687-.524 2.883-.673 5.495-.687 7.345 2.923 7.58 4.793-.922-.535-2.514.668-3.195 1.374zM14.809 1.861c-1.424-.496-5.094-1.02-7.022.966-.427.44-.929 1.263-.929 1.263s-.854 1.56-1.523.892c-.669-.669.891-2.675 2.118-3.27 1.226-.594 4.272-1.635 7.356.149z" fill="#754FFE"/><path d="M12.16 15.828H3.986a1.858 1.858 0 00-1.857 1.858v3.79c0 1.025.831 1.857 1.857 1.857h8.174a1.858 1.858 0 001.858-1.858v-3.79a1.858 1.858 0 00-1.858-1.857z" fill="#F4F1FF" stroke="#754FFE" stroke-width="1.486"/><path d="M1.31 17.128H.79a.409.409 0 00-.409.409v1.189c0 .226.183.409.409.409h.52a.409.409 0 00.409-.41v-1.188a.409.409 0 00-.409-.409z" fill="#754FFE" stroke="#754FFE" stroke-width=".074"/><path d="M19.962 15.828h8.174c1.026 0 1.858.832 1.858 1.858v3.79a1.858 1.858 0 01-1.858 1.857h-8.174a1.858 1.858 0 01-1.857-1.858v-3.79c0-1.025.831-1.857 1.857-1.857z" fill="#F4F1FF" stroke="#754FFE" stroke-width="1.486"/><path d="M30.811 17.128h.52c.226 0 .409.183.409.409v1.189a.409.409 0 01-.409.409h-.52a.409.409 0 01-.409-.41v-1.188a.41.41 0 01.41-.409zM14.76 18.243h2.6a.41.41 0 01.41.409v1.189a.409.409 0 01-.41.408h-2.6a.409.409 0 01-.409-.408v-1.19c0-.225.183-.408.409-.408z" fill="#754FFE" stroke="#754FFE" stroke-width=".074"/><path d="M11.99 19.22c0 .37-.199.669-.445.669s-.446-.3-.446-.669c0-.37.2-.669.446-.669s.446.3.446.67zm8.25 0c0 .37.199.669.445.669s.446-.3.446-.669c0-.37-.2-.669-.446-.669s-.446.3-.446.67zm-3.158 4.347c-.743.595-1.746.298-2.006 0 .074.372.356.892 1.04.892s.929-.594.966-.892z" fill="#754FFE"/><path fill-rule="evenodd" clip-rule="evenodd" d="M14.568 26.275a.26.26 0 01.31-.198l2.625.578a.26.26 0 01-.112.508l-2.625-.578a.26.26 0 01-.198-.31z" fill="#754FFE"/><path d="M16.079 32.447c-5.172.06-8.967-4.706-10.217-7.097-.186-.355-.335-.408-.446-.334-.179.119-.05.36 0 .483.624 1.457 1.473 2.688 1.82 3.121-1.218 2.021-1.622 4.037-1.672 4.793 2.021-1.991 4.063-1.895 4.83-1.598 6.02 3.121 9.363.93 11.258 0 1.516-.743 3.877.706 4.867 1.524-.118-1.843-1.114-3.864-1.597-4.645.78-1.04 1.412-2.303 1.746-2.935.268-.505.186-.706.111-.743-.178-.089-.396.186-.482.335-.558.928-3.753 7.022-10.218 7.096z" fill="#754FFE"/><path d="M53.423 12.733h5.13C57.9 8.013 53.738 4.69 48.34 4.69c-6.307 0-11.168 4.546-11.168 12.287 0 7.554 4.546 12.24 11.273 12.24 6.027 0 10.328-3.812 10.328-10.095v-3.008h-9.99v3.8h5.129c-.07 2.961-2.087 4.838-5.444 4.838-3.789 0-6.178-2.832-6.178-7.822 0-4.966 2.483-7.775 6.131-7.775 2.6 0 4.36 1.34 5.001 3.578zM69.32 29.24c4.43 0 7.414-2.156 8.114-5.479l-4.594-.303c-.5 1.364-1.783 2.075-3.439 2.075-2.483 0-4.056-1.643-4.056-4.313v-.012h12.193v-1.364c0-6.085-3.683-9.093-8.416-9.093-5.27 0-8.685 3.742-8.685 9.268 0 5.677 3.369 9.221 8.883 9.221zm-3.975-11.11c.105-2.04 1.655-3.671 3.858-3.671 2.157 0 3.649 1.538 3.66 3.672h-7.518zm22.281 11.11c4.43 0 7.414-2.156 8.114-5.479l-4.593-.303c-.502 1.364-1.784 2.075-3.44 2.075-2.482 0-4.056-1.643-4.056-4.313v-.012h12.194v-1.364c0-6.085-3.684-9.093-8.417-9.093-5.27 0-8.685 3.742-8.685 9.268 0 5.677 3.37 9.221 8.883 9.221zm-3.975-11.11c.105-2.04 1.655-3.671 3.859-3.671 2.156 0 3.648 1.538 3.66 3.672h-7.519zm14.121 10.76h4.966v-5.688l1.341-1.528 4.884 7.216h5.817l-6.983-10.153 6.645-7.752h-5.7l-5.736 6.796h-.268V5.016h-4.966V28.89zm32.692-12.8c-.443-3.299-3.101-5.338-7.624-5.338-4.581 0-7.601 2.121-7.589 5.572-.012 2.68 1.679 4.418 5.176 5.117l3.101.618c1.562.315 2.273.886 2.297 1.784-.024 1.06-1.178 1.818-2.915 1.818-1.771 0-2.95-.757-3.252-2.215l-4.885.257c.466 3.427 3.381 5.537 8.125 5.537 4.64 0 7.962-2.366 7.974-5.898-.012-2.588-1.702-4.139-5.176-4.85l-3.241-.653c-1.667-.361-2.285-.932-2.273-1.795-.012-1.072 1.201-1.772 2.74-1.772 1.725 0 2.75.944 2.995 2.098l4.547-.28z" fill="#18113C"/></g><defs><clipPath id="clip0"><path fill="#fff" transform="translate(.345)" d="M0 0h132v34H0z"/></clipPath></defs></svg>