<svg width="32" height="32" fill="none" xmlns="http://www.w3.org/2000/svg"><path d="M22.877 15.654c.52-.14 1.124-.177 1.665.046.201.083.4.177.599.281a6.54 6.54 0 011.625 1.234 6.777 6.777 0 011.509 2.563c.332 1.014.464 2.178.332 3.396a9.748 9.748 0 01-1.2 3.675 3.663 3.663 0 01-1.76 1.552 3.03 3.03 0 01-.525.158 2.491 2.491 0 01-.513.058 1.91 1.91 0 01-.907-.201c-.528-.281-.77-.773-.797-1.301-.028-.535.143-1.115.5-1.64.44-.66.743-1.387.899-2.117a5.62 5.62 0 00.049-2.138 6.368 6.368 0 00-.113-.501c-.022-.083-.046-.162-.07-.242-.028-.079-.056-.159-.086-.238a6.759 6.759 0 00-.196-.452 5.365 5.365 0 00-1.5-1.82c-.406-.324-.668-.663-.76-.962-.104-.303-.034-.569.23-.825a1.79 1.79 0 01.445-.309c.165-.08.36-.159.574-.217z" fill="url(#paint0_linear_5206_30600)"/><path d="M19.336 21.558c.379.373.712.88.795 1.463a6.71 6.71 0 01.042 1.33 6.483 6.483 0 01-.247 1.352 6.736 6.736 0 01-1.466 2.59 8.16 8.16 0 01-2.768 1.983 9.577 9.577 0 01-3.784.806 3.707 3.707 0 01-2.233-.751c-.595-.468-.965-1.081-.986-1.68-.022-.596.284-1.05.73-1.341a2.42 2.42 0 01.766-.318c.281-.06.59-.091.907-.067a6.107 6.107 0 002.285-.281c.354-.11.693-.266 1.005-.434.159-.091.309-.183.452-.28.144-.095.284-.212.415-.318.263-.214.501-.47.712-.721.104-.128.202-.266.293-.4.092-.138.174-.27.25-.416a5.44 5.44 0 00.581-1.79c.037-.26.101-.485.177-.675a1.621 1.621 0 01.202-.37c.024-.033.049-.066.076-.097.214-.23.474-.318.828-.21a1.967 1.967 0 01.486.232c.162.103.33.24.482.393z" fill="url(#paint1_linear_5206_30600)"/><path d="M12.466 21.445c-.134.513-.406 1.054-.873 1.418a6.418 6.418 0 01-2.422 1.16 6.86 6.86 0 01-2.975.028 8.148 8.148 0 01-3.11-1.402c-.993-.718-1.89-1.705-2.59-2.884-.41-.7-.574-1.56-.461-2.306a2.724 2.724 0 01.125-.534 2.91 2.91 0 01.205-.47c.162-.29.381-.523.632-.682.5-.314 1.048-.278 1.524-.037.241.12.461.294.657.505.1.106.195.223.28.348.086.125.16.26.236.403a5.99 5.99 0 001.38 1.839c.556.5 1.186.873 1.83 1.108.33.116.65.205.984.25.323.056.656.071.977.059.318-.01.642-.055.944-.12a5.66 5.66 0 00.895-.274 2.76 2.76 0 01.675-.183c.1-.013.202-.022.29-.022.092 0 .171.012.254.028.311.07.519.256.601.617.077.317.052.724-.058 1.151z" fill="url(#paint2_linear_5206_30600)"/><path d="M9.124 15.425c-.52.14-1.124.177-1.665-.046a7.088 7.088 0 01-.598-.28 6.53 6.53 0 01-1.625-1.234 6.775 6.775 0 01-1.51-2.564 8.135 8.135 0 01-.332-3.396 9.748 9.748 0 011.2-3.675 3.663 3.663 0 011.76-1.551c.174-.07.351-.122.525-.159.174-.037.345-.058.513-.058.336 0 .642.061.907.202.529.28.77.772.798 1.3.027.535-.144 1.116-.501 1.64a6.152 6.152 0 00-.898 2.118 5.62 5.62 0 00-.05 2.138 6.315 6.315 0 00.184.742c.028.08.055.159.086.238.06.156.125.306.195.452a5.364 5.364 0 001.5 1.82c.406.325.669.663.76.963.104.302.034.568-.229.825a1.787 1.787 0 01-.446.308 3.313 3.313 0 01-.574.217z" fill="url(#paint3_linear_5206_30600)"/><path d="M12.661 9.524c-.378-.373-.711-.88-.794-1.463a6.743 6.743 0 01-.043-1.329 6.455 6.455 0 01.248-1.353 6.736 6.736 0 011.466-2.59A8.159 8.159 0 0116.305.807 9.577 9.577 0 0120.09 0a3.707 3.707 0 012.233.752c.595.467.965 1.08.986 1.68.021.595-.284 1.05-.73 1.34a2.419 2.419 0 01-.767.318 3.15 3.15 0 01-.907.067 6.11 6.11 0 00-2.284.281c-.355.11-.694.266-1.005.434a7.121 7.121 0 00-.452.281 5.468 5.468 0 00-1.127 1.038 6.103 6.103 0 00-.294.4 4.422 4.422 0 00-.25.416 5.442 5.442 0 00-.58 1.79 2.86 2.86 0 01-.178.675 1.623 1.623 0 01-.201.37c-.025.033-.05.067-.077.097-.213.23-.473.318-.827.211a1.969 1.969 0 01-.486-.232 3.504 3.504 0 01-.483-.394z" fill="url(#paint4_linear_5206_30600)"/><path d="M19.537 9.637c.135-.513.407-1.054.874-1.417a6.418 6.418 0 012.422-1.161 6.859 6.859 0 012.975-.028 8.147 8.147 0 013.11 1.402c.992.718 1.89 1.705 2.587 2.884.409.7.574 1.56.46 2.306a2.718 2.718 0 01-.124.534 3.002 3.002 0 01-.205.47c-.162.29-.382.523-.632.682-.501.315-1.048.278-1.524.037a2.292 2.292 0 01-.657-.504 2.856 2.856 0 01-.281-.349 4.266 4.266 0 01-.235-.403 5.99 5.99 0 00-1.38-1.839 5.632 5.632 0 00-1.83-1.108 4.998 4.998 0 00-.984-.25 4.783 4.783 0 00-.977-.059c-.318.01-.642.055-.944.12a5.74 5.74 0 00-.895.274 2.803 2.803 0 01-.675.183 1.863 1.863 0 01-.29.019 1.34 1.34 0 01-.254-.028c-.311-.07-.52-.256-.602-.617-.073-.314-.052-.724.061-1.148z" fill="url(#paint5_linear_5206_30600)"/><defs><linearGradient id="paint0_linear_5206_30600" x1="21.576" y1="22.082" x2="28.658" y2="22.082" gradientUnits="userSpaceOnUse"><stop stop-color="#93D8DE"/><stop offset="1" stop-color="#65C8D0"/></linearGradient><linearGradient id="paint1_linear_5206_30600" x1="8.689" y1="25.983" x2="20.19" y2="25.983" gradientUnits="userSpaceOnUse"><stop stop-color="#221ECA"/><stop offset="1" stop-color="#6461DA"/></linearGradient><linearGradient id="paint2_linear_5206_30600" x1=".002" y1="19.87" x2="12.568" y2="19.87" gradientUnits="userSpaceOnUse"><stop stop-color="#93D8DE"/><stop offset="1" stop-color="#65C8D0"/></linearGradient><linearGradient id="paint3_linear_5206_30600" x1="3.342" y1="8.999" x2="10.424" y2="8.999" gradientUnits="userSpaceOnUse"><stop stop-color="#221ECA"/><stop offset="1" stop-color="#6461DA"/></linearGradient><linearGradient id="paint4_linear_5206_30600" x1="11.809" y1="5.098" x2="23.311" y2="5.098" gradientUnits="userSpaceOnUse"><stop stop-color="#93D8DE"/><stop offset="1" stop-color="#65C8D0"/></linearGradient><linearGradient id="paint5_linear_5206_30600" x1="19.434" y1="11.21" x2="32" y2="11.21" gradientUnits="userSpaceOnUse"><stop stop-color="#221ECA"/><stop offset="1" stop-color="#6461DA"/></linearGradient></defs></svg>