<svg width="33" height="32" fill="none" xmlns="http://www.w3.org/2000/svg"><path d="M12.544 11.318l2.135 2.12a1.876 1.876 0 002.647 0l1.753-1.741.37-.392L29.71 1.044A.612.612 0 0029.277 0h-3.605a4.374 4.374 0 00-3.09 1.28l-6.58 6.58-2.173-2.174a4.278 4.278 0 00-3.023-1.254H5.684l6.872 6.873-.012.013zm6.912 9.362l-2.132-2.12a1.88 1.88 0 00-2.65 0L12.92 20.3l-.369.392L2.29 30.951a.612.612 0 00.433 1.043H6.37a4.28 4.28 0 003.026-1.253L16 24.135l2.145 2.144a4.379 4.379 0 003.096 1.283h5.078l-6.873-6.873.01-.01z" fill="#29BAF9"/><path d="M7.86 15.998l-2.158 2.158a4.338 4.338 0 00-1.27 3.064v5.097l6.873-6.872.013.012 2.126-2.141a1.878 1.878 0 00-.007-2.654l-12.4-12.38A.608.608 0 000 2.71v3.624C0 7.5.452 8.591 1.276 9.415L7.859 16zm22.882 6.597l-6.564-6.596 2.18-2.19a4.232 4.232 0 001.23-2.984V5.673l-6.844 6.877-.012-.013-2.094 2.119a1.882 1.882 0 00-.01 2.638l2.107 2.163.012-.012 10.24 10.287a.594.594 0 001.015-.42v-3.669a4.305 4.305 0 00-1.26-3.048z" fill="#754FFE"/></svg>