<svg width="120" height="120" fill="none" xmlns="http://www.w3.org/2000/svg"><g clip-path="url(#clip0_2648_2425)"><path d="M119.572 57.401c-.856-.856-11.843-14.696-13.698-16.98-1.998-2.282-2.854-1.854-4.138-1.712-1.284.143-15.125 2.569-16.694 2.711-1.57.286-2.569.857-1.57 2.283.856 1.285 9.988 14.127 11.986 17.123L59.072 69.53 30.25 21.159c-1.142-1.712-1.427-2.283-3.996-2.14-2.568.142-22.687 1.855-24.114 1.855-1.427.142-2.996.713-1.57 4.137 1.427 3.425 24.257 52.51 24.828 53.936.57 1.427 2.283 3.71 6.136 2.854 3.995-.999 17.693-4.566 25.255-6.564 3.996 7.135 11.986 21.689 13.556 23.83 1.997 2.853 3.424 2.282 6.42 1.426 2.426-.713 37.385-13.27 38.954-13.983 1.57-.714 2.569-1.142 1.427-2.711-.856-1.142-9.988-13.556-14.839-19.977 3.282-.856 15.125-3.995 16.409-4.423 1.427-.428 1.712-1.141.856-1.998zM53.508 70.957c-.428.142-20.833 4.994-21.832 5.28-1.141.285-1.141.142-1.141-.286-.285-.428-24.257-50.083-24.685-50.654-.285-.571-.285-1.142 0-1.142s19.263-1.712 19.834-1.712c.713 0 .57.143.856.57 0 0 26.682 46.089 27.11 46.802.571.714.286.999-.142 1.142zm57.36 10.701c.285.571.713.856-.428 1.142-.999.428-34.388 11.7-35.101 11.986-.714.285-1.142.428-1.998-.857-.856-1.284-11.7-19.976-11.7-19.976l35.529-9.275c.856-.285 1.141-.428 1.712.428.571 1 11.701 16.124 11.986 16.552zm2.283-25.113c-.856.143-13.84 3.425-13.84 3.425L88.608 45.416c-.286-.428-.571-.856.142-1 .714-.142 12.842-2.282 13.413-2.425.571-.142.999-.285 1.712.714.714.856 9.846 12.556 10.274 12.984.428.428-.143.714-.999.856z" fill="#FB503B"/></g><defs><clipPath id="clip0_2648_2425"><path fill="#fff" transform="translate(0 19)" d="M0 0h120v82.224H0z"/></clipPath></defs></svg>